<?xml version="1.0" encoding="UTF-8"?><!DOCTYPE score-partwise PUBLIC "-//Recordare//DTD MusicXML 2.0 Partwise//EN" "http://www.musicxml.org/dtds/partwise.dtd"><score-partwise>  <identification>    <encoding>      <software>Scratch - sb2musicxml</software>      <encoding-date>2018-08-29</encoding-date>    </encoding>  </identification>  <part-list>    <score-part id="P1">      <part-name>MusicXML Part</part-name>    </score-part>  </part-list>  <part id="P1">    <measure number="1">      <attributes>        <divisions>24</divisions>        <time>          <beats>3</beats>          <beat-type>4</beat-type>        </time>      </attributes>      <sound tempo="100"/>      <note>        <rest/>        <duration>72</duration>      </note>    </measure>  <measure number="2"><note><pitch><step>C</step><octave>4</octave></pitch><duration>24</duration><lyric><text>う</text><syllabic>single</syllabic></lyric></note><note><pitch><step>C</step><octave>4</octave></pitch><duration>24</duration><lyric><text>さ</text><syllabic>single</syllabic></lyric></note><note><pitch><step>C</step><octave>4</octave></pitch><duration>24</duration><lyric><text>ぎ</text><syllabic>single</syllabic></lyric></note></measure><measure number="3"><note><pitch><step>D</step><octave>4</octave></pitch><duration>36</duration><lyric><text>お</text><syllabic>single</syllabic></lyric></note><note><pitch><step>E</step><octave>4</octave></pitch><duration>12</duration><lyric><text>い</text><syllabic>single</syllabic></lyric></note><note><pitch><step>D</step><octave>4</octave></pitch><duration>24</duration><lyric><text>し</text><syllabic>single</syllabic></lyric></note></measure><measure number="4"><note><pitch><step>E</step><octave>4</octave></pitch><duration>24</duration><lyric><text>か</text><syllabic>single</syllabic></lyric></note><note><pitch><step>E</step><octave>4</octave></pitch><duration>24</duration><lyric><text>の</text><syllabic>single</syllabic></lyric></note><note><pitch><step>F</step><octave>4</octave></pitch><duration>24</duration><lyric><text>や</text><syllabic>single</syllabic></lyric></note></measure><measure number="5"><note><pitch><step>G</step><octave>4</octave></pitch><duration>48</duration><lyric><text>ま</text><syllabic>single</syllabic></lyric></note><note><rest/><duration>24</duration></note></measure><measure number="6"><note><pitch><step>F</step><octave>4</octave></pitch><duration>24</duration><lyric><text>こ</text><syllabic>single</syllabic></lyric></note><note><pitch><step>G</step><octave>4</octave></pitch><duration>24</duration><lyric><text>ぶ</text><syllabic>single</syllabic></lyric></note><note><pitch><step>A</step><octave>4</octave></pitch><duration>24</duration><lyric><text>な</text><syllabic>single</syllabic></lyric></note></measure><measure number="7"><note><pitch><step>E</step><octave>4</octave></pitch><duration>36</duration><lyric><text>つ</text><syllabic>single</syllabic></lyric></note><note><pitch><step>F</step><octave>4</octave></pitch><duration>12</duration><lyric><text>り</text><syllabic>single</syllabic></lyric></note><note><pitch><step>E</step><octave>4</octave></pitch><duration>24</duration><lyric><text>し</text><syllabic>single</syllabic></lyric></note></measure><measure number="8"><note><pitch><step>D</step><octave>4</octave></pitch><duration>24</duration><lyric><text>か</text><syllabic>single</syllabic></lyric></note><note><pitch><step>D</step><octave>4</octave></pitch><duration>24</duration><lyric><text>の</text><syllabic>single</syllabic></lyric></note><note><pitch><step>B</step><octave>3</octave></pitch><duration>24</duration><lyric><text>か</text><syllabic>single</syllabic></lyric></note></measure><measure number="9"><note><pitch><step>C</step><octave>4</octave></pitch><duration>48</duration><lyric><text>わ</text><syllabic>single</syllabic></lyric></note><note><rest/><duration>24</duration></note></measure><measure number="10"><note><pitch><step>D</step><octave>4</octave></pitch><duration>12</duration><lyric><text>ゆ</text><syllabic>single</syllabic></lyric></note><note><pitch><step>C</step><octave>4</octave></pitch><duration>12</duration><lyric><text>ー</text><syllabic>single</syllabic></lyric></note><note><pitch><step>D</step><octave>4</octave></pitch><duration>24</duration><lyric><text>め</text><syllabic>single</syllabic></lyric></note><note><pitch><step>G</step><octave>3</octave></pitch><duration>24</duration><lyric><text>わ</text><syllabic>single</syllabic></lyric></note></measure><measure number="11"><note><pitch><step>C</step><octave>4</octave></pitch><duration>12</duration><lyric><text>い</text><syllabic>single</syllabic></lyric></note><note><pitch><step>D</step><octave>4</octave></pitch><duration>12</duration><lyric><text>ー</text><syllabic>single</syllabic></lyric></note><note><pitch><step>E</step><octave>4</octave></pitch><duration>24</duration><lyric><text>ま</text><syllabic>single</syllabic></lyric></note><note><pitch><step>E</step><octave>4</octave></pitch><duration>24</duration><lyric><text>も</text><syllabic>single</syllabic></lyric></note></measure><measure number="12"><note><pitch><step>F</step><octave>4</octave></pitch><duration>12</duration><lyric><text>め</text><syllabic>single</syllabic></lyric></note><note><pitch><step>E</step><octave>4</octave></pitch><duration>12</duration><lyric><text>ー</text><syllabic>single</syllabic></lyric></note><note><pitch><step>F</step><octave>4</octave></pitch><duration>36</duration><lyric><text>ぐ</text><syllabic>single</syllabic></lyric></note><note><pitch><step>A</step><octave>4</octave></pitch><duration>12</duration><lyric><text>ー</text><syllabic>single</syllabic></lyric></note></measure><measure number="13"><note><pitch><step>G</step><octave>4</octave></pitch><duration>12</duration><lyric><text>り</text><syllabic>single</syllabic></lyric></note><note><pitch><step>F</step><octave>4</octave></pitch><duration>12</duration><lyric><text>ー</text><syllabic>single</syllabic></lyric></note><note><pitch><step>E</step><octave>4</octave></pitch><duration>36</duration><lyric><text>て</text><syllabic>single</syllabic></lyric></note><note><rest/><duration>12</duration></note></measure><measure number="14"><note><pitch><step>G</step><octave>4</octave></pitch><duration>24</duration><lyric><text>わ</text><syllabic>single</syllabic></lyric></note><note><pitch><step>G</step><octave>4</octave></pitch><duration>24</duration><lyric><text>す</text><syllabic>single</syllabic></lyric></note><note><pitch><step>G</step><octave>4</octave></pitch><duration>24</duration><lyric><text>れ</text><syllabic>single</syllabic></lyric></note></measure><measure number="15"><note><pitch><step>C</step><octave>4</octave></pitch><duration>36</duration><lyric><text>が</text><syllabic>single</syllabic></lyric></note><note><pitch><step>D</step><octave>4</octave></pitch><duration>12</duration><lyric><text>た</text><syllabic>single</syllabic></lyric></note><note><pitch><step>E</step><octave>4</octave></pitch><duration>24</duration><lyric><text>き</text><syllabic>single</syllabic></lyric></note></measure><measure number="16"><note><pitch><step>F</step><octave>4</octave></pitch><duration>24</duration><lyric><text>ふ</text><syllabic>single</syllabic></lyric></note><note><pitch><step>F</step><octave>4</octave></pitch><duration>24</duration><lyric><text>る</text><syllabic>single</syllabic></lyric></note><note><pitch><step>D</step><octave>4</octave></pitch><duration>24</duration><lyric><text>さ</text><syllabic>single</syllabic></lyric></note></measure><measure number="17"><note><pitch><step>C</step><octave>4</octave></pitch><duration>48</duration><lyric><text>と</text><syllabic>single</syllabic></lyric></note><note><rest/><duration>24</duration></note></measure></part></score-partwise>